<svg width="140.000000" height="43.866699" viewBox="0 0 140 43.8667" fill="none" xmlns="http://www.w3.org/2000/svg" xmlns:xlink="http://www.w3.org/1999/xlink">
	<desc>
			Created with Pixso.
	</desc>
	<defs>
		<clipPath id="clip176_1094">
			<rect id="airbnb_logo.svg" width="140.000000" height="43.866673" fill="white" fill-opacity="0"/>
		</clipPath>
	</defs>
	<rect id="airbnb_logo.svg" width="140.000000" height="43.866673" fill="#FFFFFF" fill-opacity="0"/>
	<g clip-path="url(#clip176_1094)">
		<path id="Vector" d="M73.78 11.02C73.78 12.6 72.51 13.87 70.93 13.87C69.36 13.87 68.09 12.6 68.09 11.02C68.09 9.44 69.32 8.16 70.93 8.16C72.55 8.21 73.78 9.48 73.78 11.02ZM62.06 16.77C62.06 17.03 62.06 17.47 62.06 17.47C62.06 17.47 60.7 15.72 57.81 15.72C53.05 15.72 49.33 19.36 49.33 24.41C49.33 29.42 53 33.1 57.81 33.1C60.74 33.1 62.06 31.3 62.06 31.3L62.06 32.05C62.06 32.4 62.32 32.66 62.67 32.66L66.21 32.66L66.21 16.15C66.21 16.15 62.98 16.15 62.67 16.15C62.32 16.15 62.06 16.46 62.06 16.77ZM62.06 27.35C61.4 28.32 60.09 29.15 58.51 29.15C55.71 29.15 53.57 27.4 53.57 24.41C53.57 21.42 55.71 19.67 58.51 19.67C60.04 19.67 61.44 20.55 62.06 21.47L62.06 27.35ZM68.84 16.15L73.03 16.15L73.03 32.66L68.84 32.66L68.84 16.15ZM131.55 15.72C128.67 15.72 127.31 17.47 127.31 17.47L127.31 8.21L123.11 8.21L123.11 32.66C123.11 32.66 126.35 32.66 126.66 32.66C127.01 32.66 127.27 32.36 127.27 32.05L127.27 31.3C127.27 31.3 128.62 33.1 131.51 33.1C136.28 33.1 140 29.42 140 24.41C140 19.4 136.28 15.72 131.55 15.72ZM130.85 29.11C129.24 29.11 127.97 28.27 127.31 27.31L127.31 21.42C127.97 20.55 129.37 19.62 130.85 19.62C133.65 19.62 135.8 21.38 135.8 24.37C135.8 27.35 133.65 29.11 130.85 29.11ZM120.93 22.87L120.93 32.71L116.73 32.71L116.73 23.36C116.73 20.63 115.85 19.54 113.49 19.54C112.22 19.54 110.91 20.19 110.08 21.16L110.08 32.66L105.88 32.66L105.88 16.15L109.2 16.15C109.55 16.15 109.82 16.46 109.82 16.77L109.82 17.47C111.04 16.2 112.66 15.72 114.28 15.72C116.12 15.72 117.65 16.24 118.87 17.3C120.36 18.53 120.93 20.11 120.93 22.87ZM95.69 15.72C92.8 15.72 91.45 17.47 91.45 17.47L91.45 8.21L87.25 8.21L87.25 32.66C87.25 32.66 90.49 32.66 90.79 32.66C91.14 32.66 91.4 32.36 91.4 32.05L91.4 31.3C91.4 31.3 92.76 33.1 95.65 33.1C100.41 33.1 104.13 29.42 104.13 24.41C104.18 19.4 100.46 15.72 95.69 15.72ZM94.99 29.11C93.37 29.11 92.1 28.27 91.45 27.31L91.45 21.42C92.1 20.55 93.5 19.62 94.99 19.62C97.79 19.62 99.93 21.38 99.93 24.37C99.93 27.35 97.79 29.11 94.99 29.11ZM83.62 15.72C84.89 15.72 85.54 15.93 85.54 15.93L85.54 19.84C85.54 19.84 82.04 18.66 79.86 21.16L79.86 32.71L75.66 32.71L75.66 16.15C75.66 16.15 78.89 16.15 79.2 16.15C79.55 16.15 79.81 16.46 79.81 16.77L79.81 17.47C80.6 16.55 82.31 15.72 83.62 15.72ZM40.01 31.17C39.79 30.64 39.58 30.07 39.36 29.59C39.01 28.8 38.66 28.05 38.35 27.35L38.31 27.31C35.29 20.72 32.05 14.05 28.64 7.46L28.51 7.2C28.16 6.54 27.81 5.84 27.46 5.13C27.02 4.34 26.59 3.51 25.89 2.72C24.49 0.96 22.48 0 20.33 0C18.15 0 16.18 0.96 14.73 2.63C14.08 3.42 13.6 4.25 13.16 5.04C12.81 5.75 12.46 6.45 12.11 7.11L11.98 7.37C8.61 13.96 5.33 20.63 2.31 27.22L2.27 27.31C1.96 28.01 1.61 28.76 1.26 29.55C1.04 30.03 0.83 30.56 0.61 31.13C0.04 32.75 -0.14 34.29 0.08 35.87C0.56 39.16 2.75 41.93 5.77 43.16C6.91 43.64 8.09 43.86 9.31 43.86C9.66 43.86 10.1 43.82 10.45 43.77C11.89 43.6 13.38 43.12 14.82 42.28C16.61 41.27 18.32 39.82 20.24 37.71C22.17 39.82 23.92 41.27 25.67 42.28C27.11 43.12 28.6 43.6 30.04 43.77C30.39 43.82 30.83 43.86 31.18 43.86C32.4 43.86 33.63 43.64 34.72 43.16C37.78 41.93 39.93 39.12 40.41 35.87C40.76 34.33 40.58 32.8 40.01 31.17ZM20.29 33.45C17.93 30.47 16.4 27.66 15.87 25.29C15.65 24.28 15.61 23.4 15.74 22.61C15.83 21.91 16.09 21.29 16.44 20.76C17.27 19.58 18.67 18.83 20.29 18.83C21.91 18.83 23.35 19.54 24.14 20.76C24.49 21.29 24.75 21.91 24.84 22.61C24.97 23.4 24.92 24.32 24.71 25.29C24.18 27.61 22.65 30.43 20.29 33.45ZM37.74 35.52C37.43 37.8 35.9 39.78 33.76 40.66C32.71 41.1 31.57 41.23 30.44 41.1C29.34 40.96 28.25 40.61 27.11 39.95C25.54 39.08 23.96 37.71 22.13 35.69C25.01 32.14 26.76 28.89 27.42 25.99C27.72 24.63 27.77 23.4 27.64 22.26C27.46 21.16 27.07 20.15 26.46 19.27C25.1 17.3 22.83 16.15 20.29 16.15C17.75 16.15 15.48 17.34 14.12 19.27C13.51 20.15 13.12 21.16 12.94 22.26C12.77 23.4 12.81 24.67 13.16 25.99C13.82 28.89 15.61 32.18 18.45 35.74C16.66 37.76 15.04 39.12 13.47 40C12.33 40.66 11.23 41.01 10.14 41.14C8.96 41.27 7.82 41.1 6.82 40.7C4.67 39.82 3.14 37.85 2.84 35.56C2.71 34.46 2.79 33.37 3.23 32.14C3.36 31.7 3.58 31.26 3.8 30.73C4.11 30.03 4.46 29.28 4.81 28.54L4.85 28.45C7.87 21.91 11.1 15.23 14.47 8.73L14.6 8.47C14.95 7.81 15.3 7.11 15.65 6.45C16 5.75 16.4 5.09 16.88 4.52C17.8 3.46 19.02 2.89 20.38 2.89C21.73 2.89 22.96 3.46 23.87 4.52C24.36 5.09 24.75 5.75 25.1 6.45C25.45 7.11 25.8 7.81 26.15 8.47L26.28 8.73C29.6 15.28 32.84 21.95 35.86 28.49L35.86 28.54C36.21 29.24 36.51 30.03 36.86 30.73C37.08 31.26 37.3 31.7 37.43 32.14C37.78 33.28 37.91 34.38 37.74 35.52Z" fill="#2F1C48" fill-opacity="1.000000" fill-rule="nonzero"/>
	</g>
</svg>
