<svg width="150.000000" height="29.500000" viewBox="0 0 150 29.5" fill="none" xmlns="http://www.w3.org/2000/svg" xmlns:xlink="http://www.w3.org/1999/xlink">
	<desc>
			Created with Pixso.
	</desc>
	<defs>
		<clipPath id="clip176_1054">
			<rect id="dropbox_logo.svg" width="150.000000" height="29.500002" fill="white" fill-opacity="0"/>
		</clipPath>
	</defs>
	<rect id="dropbox_logo.svg" width="150.000000" height="29.500002" fill="#FFFFFF" fill-opacity="0"/>
	<g clip-path="url(#clip176_1054)">
		<path id="Vector" d="M17.39 5.54L8.7 11.08L17.39 16.63L8.7 22.17L0 16.6L8.7 11.05L0 5.54L8.7 0L17.39 5.54ZM8.65 23.95L17.35 18.41L26.05 23.95L17.35 29.5L8.65 23.95ZM17.39 16.6L26.1 11.05L17.39 5.54L26.05 0L34.75 5.54L26.05 11.08L34.75 16.63L26.05 22.17L17.39 16.6Z" fill="#2F1C48" fill-opacity="1.000000" fill-rule="nonzero"/>
		<path id="Vector" d="M41.58 5.54L48.61 5.54C53.1 5.54 56.8 8.13 56.8 14.05L56.8 15.29C56.8 21.25 53.33 23.94 48.75 23.94L41.58 23.94L41.58 5.54ZM45.51 8.88L45.51 20.58L48.52 20.58C51.07 20.58 52.78 18.92 52.78 15.22L52.78 14.24C52.78 10.54 50.98 8.88 48.39 8.88L45.51 8.88ZM58.89 9.06L62.04 9.06L62.55 12.52C63.14 10.17 64.68 8.91 67.45 8.91L68.43 8.91L68.43 12.88L66.81 12.88C63.61 12.88 62.83 13.99 62.83 17.13L62.83 23.98L58.95 23.98L58.95 9.06L58.89 9.06ZM69.21 16.82L69.21 16.4C69.21 11.41 72.4 8.68 76.75 8.68C81.19 8.68 84.3 11.41 84.3 16.4L84.3 16.82C84.3 21.72 81.28 24.36 76.75 24.36C71.93 24.31 69.21 21.73 69.21 16.82ZM80.32 16.78L80.32 16.4C80.32 13.63 78.93 11.97 76.71 11.97C74.53 11.97 73.09 13.49 73.09 16.4L73.09 16.78C73.09 19.46 74.49 20.99 76.71 20.99C78.93 20.94 80.32 19.46 80.32 16.78ZM86.33 9.06L89.58 9.06L89.95 11.88C90.73 9.99 92.39 8.68 94.85 8.68C98.65 8.68 101.16 11.41 101.16 16.46L101.16 16.88C101.16 21.78 98.38 24.37 94.85 24.37C92.5 24.37 90.88 23.31 90.08 21.6L90.08 29.14L86.29 29.14L86.33 9.06ZM97.21 16.78L97.21 16.45C97.21 13.48 95.68 12.01 93.64 12.01C91.47 12.01 90.03 13.67 90.03 16.45L90.03 16.73C90.03 19.37 91.42 21.03 93.6 21.03C95.83 20.99 97.21 19.56 97.21 16.78ZM106.9 21.22L106.57 23.95L103.24 23.95L103.24 4.07L107.04 4.07L107.04 11.7C107.88 9.75 109.54 8.68 111.9 8.68C115.47 8.73 118.11 11.19 118.11 16.13L118.11 16.6C118.11 21.54 115.6 24.37 111.81 24.37C109.3 24.31 107.68 23.16 106.9 21.22ZM114.12 16.6L114.12 16.22C114.12 13.49 112.63 11.97 110.55 11.97C108.42 11.97 106.93 13.67 106.93 16.27L106.93 16.6C106.93 19.37 108.37 20.99 110.5 20.99C112.78 20.99 114.12 19.56 114.12 16.6ZM119.77 16.82L119.77 16.4C119.77 11.41 122.97 8.68 127.32 8.68C131.75 8.68 134.86 11.41 134.86 16.4L134.86 16.82C134.86 21.72 131.8 24.36 127.32 24.36C122.5 24.31 119.77 21.73 119.77 16.82ZM130.92 16.78L130.92 16.4C130.92 13.63 129.52 11.97 127.3 11.97C125.13 11.97 123.69 13.49 123.69 16.4L123.69 16.78C123.69 19.46 125.08 20.99 127.3 20.99C129.53 20.94 130.92 19.46 130.92 16.78ZM139.95 16.22L134.71 9.06L139.2 9.06L142.21 13.54L145.27 9.06L149.71 9.06L144.4 16.18L150 23.95L145.6 23.95L142.18 19.01L138.85 23.95L134.26 23.95L139.95 16.22Z" fill="#2F1C48" fill-opacity="1.000000" fill-rule="nonzero"/>
	</g>
</svg>
