<svg width="190.000000" height="76.633301" viewBox="0 0 190 76.6333" fill="none" xmlns="http://www.w3.org/2000/svg" xmlns:xlink="http://www.w3.org/1999/xlink">
	<desc>
			Created with Pixso.
	</desc>
	<defs>
		<clipPath id="clip176_1092">
			<rect id="mister_aladin_logo.svg" width="190.000000" height="76.633331" fill="white" fill-opacity="0"/>
		</clipPath>
	</defs>
	<rect id="mister_aladin_logo.svg" width="190.000000" height="76.633331" fill="#FFFFFF" fill-opacity="0"/>
	<g clip-path="url(#clip176_1092)">
		<path id="Vector" d="M127.7 32.87L127.7 34.07C127.7 34.07 126.7 32.57 124.43 32.57C122.17 32.57 119.82 34.22 119.82 38.13C119.82 42.03 123.43 43.07 123.99 43.07C124.55 43.07 126.32 43.24 127.65 41.91L127.65 42.94L130.17 42.94L130.17 32.87L127.7 32.87ZM125.08 40.82C123.56 40.82 122.33 39.5 122.33 37.88C122.33 36.25 123.55 34.93 125.08 34.93C126.61 34.93 127.83 36.24 127.83 37.87C127.83 39.49 126.59 40.82 125.08 40.82Z" fill="#2F1C48" fill-opacity="1.000000" fill-rule="nonzero"/>
		<path id="Vector" d="M144.19 32.87L144.19 34.07C144.19 34.07 143.19 32.57 140.92 32.57C138.66 32.57 136.31 34.22 136.31 38.13C136.31 42.03 139.92 43.07 140.48 43.07C141.05 43.07 142.81 43.24 144.14 41.91L144.14 42.94L146.66 42.94L146.66 32.87L144.19 32.87ZM141.56 40.82C140.05 40.82 138.82 39.5 138.82 37.88C138.82 36.25 140.05 34.93 141.56 34.93C143.08 34.93 144.31 36.24 144.31 37.87C144.31 39.49 143.08 40.82 141.56 40.82Z" fill="#2F1C48" fill-opacity="1.000000" fill-rule="nonzero"/>
		<path id="Vector" d="M156.22 29.04L156.22 34.07C156.22 34.07 155.22 32.58 152.95 32.58C150.69 32.58 148.35 34.22 148.35 38.12C148.35 42.02 151.95 43.06 152.51 43.06C153.08 43.06 154.84 43.23 156.17 41.91L156.17 42.94L158.69 42.94L158.69 29.04L156.22 29.04ZM153.59 40.81C152.08 40.81 150.85 39.5 150.85 37.87C150.85 36.25 152.08 34.93 153.59 34.93C155.11 34.93 156.34 36.24 156.34 37.87C156.34 39.49 155.11 40.82 153.59 40.82L153.59 40.81Z" fill="#2F1C48" fill-opacity="1.000000" fill-rule="nonzero"/>
		<path id="Vector" d="M132.22 28.94L134.78 28.94L134.78 42.93L132.19 42.93C132.19 42.93 132.2 28.92 132.22 28.94Z" fill="#2F1C48" fill-opacity="1.000000" fill-rule="nonzero"/>
		<path id="Vector" d="M160.92 32.84L163.48 32.84L163.48 42.93L160.89 42.93C160.89 42.93 160.9 32.82 160.92 32.84Z" fill="#2F1C48" fill-opacity="1.000000" fill-rule="nonzero"/>
		<path id="Vector" d="M163.55 30.2C163.55 30.92 162.97 31.5 162.26 31.5C161.54 31.5 160.96 30.92 160.96 30.2C160.96 29.48 161.54 28.9 162.26 28.9C162.97 28.9 163.55 29.48 163.55 30.2Z" fill="#2F1C48" fill-opacity="1.000000" fill-rule="evenodd"/>
		<path id="Vector" d="M165.76 32.86L165.76 42.93L168.22 42.93L168.22 37.51C168.22 37.51 168.19 35.1 170.56 34.89C170.56 34.89 172.16 34.59 172.16 37.25L172.16 42.91L174.68 42.91L174.68 35.59C174.68 35.59 174.46 32.58 171.39 32.58C170.82 32.55 170.25 32.65 169.72 32.86C169.18 33.08 168.7 33.4 168.3 33.81L168.3 32.87C168.3 32.87 165.79 32.89 165.76 32.86Z" fill="#2F1C48" fill-opacity="1.000000" fill-rule="nonzero"/>
		<path id="Vector" d="M15.33 32.85L15.33 42.92L17.8 42.92L17.8 37.15C17.8 37.15 17.97 34.86 20.15 34.86C20.15 34.86 21.7 34.96 21.7 37L21.7 42.9L24.28 42.9L24.28 37C24.28 37 24.62 34.81 26.51 34.81C28.39 34.81 28.17 36.8 28.17 36.8L28.17 42.87L30.65 42.87L30.65 35.69C30.65 35.69 30.43 32.58 27.48 32.58C24.53 32.58 23.97 34.39 23.97 34.39C23.67 33.85 23.23 33.39 22.69 33.08C22.15 32.76 21.53 32.59 20.91 32.6C18.72 32.6 17.82 34.07 17.82 34.07L17.82 32.84C17.82 32.84 15.33 32.82 15.33 32.85Z" fill="#2F1C48" fill-opacity="1.000000" fill-rule="nonzero"/>
		<path id="Vector" d="M32.86 32.87L35.36 32.87L35.36 42.9L32.88 42.9C32.88 42.9 32.92 32.81 32.86 32.87Z" fill="#2F1C48" fill-opacity="1.000000" fill-rule="nonzero"/>
		<path id="Vector" d="M42.25 35.75L43.75 34.3C43.75 34.3 42.81 32.58 40.34 32.58C37.86 32.58 37.37 34.62 37.37 34.62C37.37 34.62 36.61 36.83 38.94 38.11C41.27 39.38 41.86 39.48 41.56 40.42C41.27 41.35 39.33 40.96 38.42 39.82L36.93 41.44C36.93 41.44 38.2 43.31 40.43 43.14C42.67 42.97 43.33 41.86 43.33 41.86C43.68 41.42 43.91 40.88 43.97 40.32C44.04 39.75 43.94 39.18 43.7 38.67C43.7 38.67 43.08 37.36 40.63 36.43C40.63 36.43 39.06 35.96 39.8 35.03C40.53 34.1 42.25 35.75 42.25 35.75Z" fill="#2F1C48" fill-opacity="1.000000" fill-rule="nonzero"/>
		<path id="Vector" d="M46.32 29.14L48.79 29.14L48.79 32.83L50.24 32.83L50.24 35.02L48.77 35.02L48.77 42.89L46.37 42.89L46.37 35.04L45 35.04L45 32.84L46.3 32.84C46.3 32.84 46.3 29.11 46.32 29.14Z" fill="#2F1C48" fill-opacity="1.000000" fill-rule="nonzero"/>
		<path id="Vector" d="M56.45 32.58C56.45 32.58 51.22 32.53 51.22 37.93C51.22 43.34 56.64 43.22 56.64 43.22C56.64 43.22 59.63 43.34 60.98 41.02L58.95 39.95C58.95 39.95 58.34 40.91 56.65 40.98C55.93 41.04 55.22 40.82 54.65 40.38C54.08 39.94 53.69 39.31 53.56 38.6L61.68 38.55C61.68 38.55 62.16 32.82 56.45 32.58ZM53.7 36.61C53.9 36.04 54.28 35.56 54.77 35.22C55.26 34.88 55.85 34.7 56.45 34.71C57.05 34.7 57.64 34.89 58.13 35.24C58.62 35.59 58.98 36.08 59.17 36.66L53.7 36.61Z" fill="#2F1C48" fill-opacity="1.000000" fill-rule="nonzero"/>
		<path id="Vector" d="M63.14 32.87L65.29 32.87L65.29 34.05C65.29 34.05 66.45 31.89 68.51 32.85L67.75 35.05C67.75 35.05 66.35 33.92 65.69 36.38L65.69 42.89L63.22 42.89C63.22 42.89 63.17 32.87 63.14 32.87Z" fill="#2F1C48" fill-opacity="1.000000" fill-rule="nonzero"/>
		<path id="Vector" d="M35.49 30.2C35.49 30.92 34.91 31.5 34.2 31.5C33.48 31.5 32.9 30.92 32.9 30.2C32.9 29.48 33.48 28.9 34.2 28.9C34.91 28.9 35.49 29.48 35.49 30.2Z" fill="#2F1C48" fill-opacity="1.000000" fill-rule="evenodd"/>
		<path id="Vector" d="M82.97 24.81C82.97 25.48 83.1 26.13 83.35 26.74C83.61 27.36 83.98 27.91 84.45 28.38L85.34 29.27C87.61 27.14 90.61 25.95 93.73 25.94C96.84 25.93 99.84 27.1 102.13 29.22L103.03 28.32C104.06 27.28 105.43 26.67 106.89 26.59L97.03 16.71C96.16 15.84 94.99 15.36 93.77 15.36C92.54 15.36 91.37 15.84 90.5 16.71L83.01 24.22C82.99 24.42 82.97 24.61 82.97 24.81Z" fill="#2F1C48" fill-opacity="1.000000" fill-rule="nonzero"/>
		<path id="Vector" d="M80.3 49.13C80.96 49.13 81.61 49 82.22 48.75C82.83 48.49 83.39 48.12 83.85 47.65L84.75 46.75C82.62 44.47 81.43 41.47 81.42 38.35C81.41 35.23 82.58 32.22 84.69 29.92L83.79 29.03C82.76 28 82.15 26.62 82.07 25.16L72.21 35.04C71.35 35.91 70.86 37.08 70.86 38.31C70.86 39.53 71.35 40.71 72.21 41.58L79.71 49.09C79.9 49.11 80.1 49.13 80.3 49.13Z" fill="#2F1C48" fill-opacity="1.000000" fill-rule="nonzero"/>
		<path id="Vector" d="M104.57 51.81C104.57 51.15 104.44 50.49 104.18 49.88C103.93 49.27 103.56 48.71 103.09 48.24L102.2 47.35C99.92 49.48 96.93 50.67 93.81 50.68C90.7 50.69 87.69 49.52 85.4 47.41L84.51 48.3C83.48 49.34 82.1 49.95 80.65 50.03L90.51 59.91C91.37 60.78 92.54 61.26 93.77 61.26C94.99 61.26 96.16 60.78 97.03 59.91L104.52 52.4C104.55 52.2 104.56 52.01 104.57 51.81Z" fill="#2F1C48" fill-opacity="1.000000" fill-rule="nonzero"/>
		<path id="Vector" d="M115.32 35.04L107.83 27.54C107.63 27.52 107.43 27.5 107.23 27.5C106.57 27.5 105.91 27.63 105.3 27.89C104.69 28.14 104.14 28.51 103.67 28.98L102.78 29.88C104.91 32.16 106.1 35.16 106.11 38.28C106.12 41.4 104.95 44.41 102.84 46.71L103.73 47.6C104.76 48.64 105.38 50.01 105.46 51.47L115.32 41.58C116.19 40.71 116.67 39.54 116.67 38.31C116.67 37.09 116.19 35.91 115.32 35.04Z" fill="#2F1C48" fill-opacity="1.000000" fill-rule="nonzero"/>
		<path id="Vector" d="M89.01 29.64C89.01 29.64 92.07 29.61 93.79 31.22C95.13 30.16 96.79 29.6 98.5 29.61C97.12 28.66 95.49 28.14 93.82 28.13C91.1 28.13 89.01 29.64 89.01 29.64Z" fill="#2F1C48" fill-opacity="1.000000" fill-rule="nonzero"/>
		<path id="Vector" d="M93.44 31.33C93.44 31.33 91.18 29.61 88.26 30.06C86.93 31.1 85.95 32.54 85.47 34.16C85.47 34.16 89.12 31.78 93.44 31.33Z" fill="#2F1C48" fill-opacity="1.000000" fill-rule="nonzero"/>
		<path id="Vector" d="M94.13 31.35C94.13 31.35 96.33 29.61 99.27 30C99.27 30 101.16 31.35 102.16 34.19C99.68 32.76 96.96 31.79 94.13 31.35Z" fill="#2F1C48" fill-opacity="1.000000" fill-rule="nonzero"/>
		<path id="Vector" d="M85.38 34.57C85.38 34.57 89.17 32.12 93.74 31.61C93.74 31.61 98.15 32.19 102.09 34.48C102.09 34.48 102.54 35.53 102.84 37.59C102.84 37.59 95.9 35.15 93.75 34.27C93.75 34.27 87.53 36.75 84.88 37.51C84.88 37.51 85.12 35 85.38 34.57Z" fill="#2F1C48" fill-opacity="1.000000" fill-rule="nonzero"/>
		<path id="Vector" d="M92.15 35.19C92.15 35.19 93.42 34.78 93.68 34.59C94.19 34.82 94.73 35.01 95.27 35.17L93.85 36.14L92.15 35.19Z" fill="#2F1C48" fill-opacity="1.000000" fill-rule="nonzero"/>
		<path id="Vector" d="M84.56 37.45C84.56 37.45 84.56 36.52 84.78 35.98L83.57 34.46L84.56 37.45Z" fill="#2F1C48" fill-opacity="1.000000" fill-rule="nonzero"/>
		<path id="Vector" d="M102.77 36.05C102.91 36.49 103.01 36.94 103.05 37.4L104.06 34.5L102.77 36.05Z" fill="#2F1C48" fill-opacity="1.000000" fill-rule="nonzero"/>
		<path id="Vector" d="M90.2 40.62C90.1 40.62 90 40.59 89.91 40.54C89.83 40.48 89.75 40.41 89.7 40.32C89.65 40.23 89.62 40.13 89.62 40.03C89.62 39.93 89.65 39.83 89.69 39.74C89.74 39.65 89.81 39.57 89.9 39.52C89.98 39.46 90.08 39.43 90.18 39.42C90.28 39.42 90.39 39.44 90.48 39.48C90.57 39.52 90.65 39.59 90.71 39.67C90.63 39.38 90.44 39.13 90.19 38.96C89.94 38.8 89.63 38.73 89.34 38.77C89.04 38.81 88.76 38.96 88.56 39.19C88.37 39.42 88.26 39.71 88.26 40.01C88.26 40.31 88.37 40.61 88.56 40.83C88.76 41.06 89.04 41.21 89.34 41.25C89.63 41.29 89.94 41.22 90.19 41.06C90.44 40.89 90.63 40.64 90.71 40.35C90.65 40.43 90.58 40.5 90.49 40.55C90.4 40.6 90.3 40.62 90.2 40.62Z" fill="#2F1C48" fill-opacity="1.000000" fill-rule="nonzero"/>
		<path id="Vector" d="M98.28 38.76C98.01 38.76 97.75 38.85 97.53 39.01C97.32 39.18 97.16 39.41 97.09 39.67C97.16 39.57 97.27 39.49 97.39 39.45C97.51 39.4 97.64 39.4 97.76 39.44C97.88 39.48 97.99 39.55 98.06 39.66C98.14 39.76 98.18 39.88 98.18 40.01C98.18 40.14 98.14 40.26 98.06 40.37C97.99 40.47 97.88 40.55 97.76 40.58C97.64 40.62 97.51 40.62 97.39 40.58C97.27 40.54 97.16 40.46 97.09 40.35C97.15 40.58 97.28 40.78 97.45 40.93C97.62 41.09 97.83 41.19 98.06 41.23C98.29 41.28 98.53 41.25 98.74 41.17C98.96 41.08 99.15 40.94 99.28 40.75C99.42 40.57 99.51 40.35 99.53 40.12C99.55 39.89 99.51 39.65 99.4 39.45C99.3 39.24 99.14 39.06 98.94 38.94C98.74 38.82 98.52 38.76 98.28 38.76L98.28 38.76Z" fill="#2F1C48" fill-opacity="1.000000" fill-rule="nonzero"/>
		<path id="Vector" d="M99.75 44.31C99.75 44.31 99.61 43.31 98.73 43.27C98.58 43.24 98.42 43.28 98.29 43.37C98.16 43.46 98.08 43.6 98.05 43.75C98.39 43.52 98.59 43.58 98.59 43.58C98.59 43.58 99.29 43.72 99.02 44.38C98.75 45.04 97.03 44.83 97.03 44.83C97.03 44.83 95.76 44.59 94.96 44.79C94.29 44.91 93.61 44.91 92.95 44.79C92.15 44.59 90.88 44.83 90.88 44.83C90.88 44.83 89.17 45.04 88.89 44.38C88.61 43.72 89.32 43.58 89.32 43.58C89.32 43.58 89.52 43.52 89.86 43.75C89.83 43.6 89.75 43.46 89.62 43.37C89.49 43.28 89.33 43.24 89.18 43.27C88.3 43.32 88.16 44.31 88.16 44.31C88.16 44.31 87.9 45.93 90.19 46.32C92.42 46.7 93.44 46.35 93.94 46.04C94.45 46.35 95.47 46.7 97.7 46.32C100.01 45.93 99.75 44.31 99.75 44.31Z" fill="#2F1C48" fill-opacity="1.000000" fill-rule="nonzero"/>
		<path id="Vector" d="M89.53 41.74C89.17 41.74 88.82 41.64 88.52 41.44C88.22 41.24 87.99 40.95 87.85 40.62C87.72 40.29 87.68 39.92 87.75 39.57C87.82 39.22 87.99 38.89 88.25 38.64C88.5 38.38 88.82 38.21 89.18 38.14C89.53 38.07 89.89 38.11 90.22 38.24C90.56 38.38 90.84 38.61 91.04 38.91C91.24 39.21 91.34 39.56 91.34 39.92C91.34 40.41 91.15 40.87 90.81 41.21C90.47 41.55 90.01 41.74 89.53 41.74ZM89.53 38.3C89.21 38.3 88.9 38.4 88.63 38.58C88.37 38.75 88.16 39.01 88.04 39.3C87.92 39.6 87.88 39.92 87.95 40.24C88.01 40.55 88.16 40.84 88.39 41.07C88.61 41.29 88.9 41.45 89.22 41.51C89.53 41.57 89.85 41.54 90.15 41.42C90.44 41.29 90.7 41.09 90.87 40.82C91.05 40.55 91.15 40.24 91.15 39.92C91.14 39.49 90.97 39.08 90.67 38.78C90.37 38.48 89.96 38.31 89.53 38.3L89.53 38.3Z" fill="#2F1C48" fill-opacity="1.000000" fill-rule="nonzero"/>
		<path id="Vector" d="M98.25 41.74C97.89 41.74 97.54 41.64 97.24 41.44C96.95 41.24 96.71 40.95 96.58 40.62C96.44 40.29 96.4 39.92 96.47 39.57C96.54 39.22 96.72 38.89 96.97 38.64C97.22 38.38 97.55 38.21 97.9 38.14C98.25 38.07 98.62 38.11 98.95 38.24C99.28 38.38 99.56 38.61 99.76 38.91C99.96 39.21 100.07 39.56 100.07 39.92C100.07 40.41 99.87 40.87 99.54 41.21C99.19 41.55 98.73 41.74 98.25 41.74ZM98.25 38.3C97.93 38.3 97.62 38.4 97.35 38.58C97.09 38.75 96.88 39.01 96.76 39.3C96.64 39.6 96.61 39.92 96.67 40.24C96.73 40.55 96.88 40.84 97.11 41.07C97.34 41.29 97.62 41.45 97.94 41.51C98.25 41.57 98.58 41.54 98.87 41.42C99.17 41.29 99.42 41.09 99.6 40.82C99.77 40.55 99.87 40.24 99.87 39.92C99.87 39.49 99.7 39.08 99.39 38.78C99.09 38.48 98.68 38.31 98.25 38.3L98.25 38.3Z" fill="#2F1C48" fill-opacity="1.000000" fill-rule="nonzero"/>
	</g>
</svg>
