<svg width="140.085449" height="35.933350" viewBox="0 0 140.085 35.9333" fill="none" xmlns="http://www.w3.org/2000/svg" xmlns:xlink="http://www.w3.org/1999/xlink">
	<desc>
			Created with Pixso.
	</desc>
	<defs/>
	<path id="Vector" d="M26.25 21.9C25.14 21.21 23.86 21.04 22.57 21.04C21.55 21.04 19.92 20.36 19.92 18.39C19.92 17.71 20.18 17.02 20.69 16.51C21.2 15.99 21.89 15.74 22.57 15.74C23.86 15.65 25.14 15.48 26.25 14.88C27.28 14.28 28.13 13.43 28.73 12.4C29.33 11.37 29.59 10.26 29.59 9.06C29.59 7.87 29.24 6.75 28.73 5.73C28.13 4.7 27.28 3.85 26.25 3.25C25.22 2.65 24.11 2.39 22.91 2.39C21.72 2.39 20.61 2.73 19.58 3.25C18.55 3.85 17.7 4.7 17.1 5.73C16.5 6.75 16.24 7.87 16.16 9.06C16.16 10.35 16.59 11.55 17.18 12.66C17.7 13.6 17.95 15.31 16.24 16.34C15.65 16.68 14.88 16.76 14.19 16.59C13.51 16.42 12.91 15.99 12.57 15.4C11.88 14.37 11.11 13.34 10 12.66C8.97 12.06 7.86 11.8 6.67 11.8C5.47 11.8 4.36 12.14 3.33 12.66C2.3 13.26 1.45 14.11 0.85 15.14C0.25 16.17 0 17.28 0 18.48C0 19.67 0.34 20.79 0.85 21.81C1.45 22.84 2.3 23.69 3.33 24.29C4.36 24.89 5.47 25.15 6.67 25.15C7.86 25.15 8.97 24.81 10 24.29C11.11 23.61 11.97 22.67 12.57 21.56C13.08 20.7 14.45 19.59 16.16 20.53C16.76 20.87 17.18 21.47 17.36 22.15C17.53 22.84 17.44 23.52 17.1 24.21C16.5 25.32 16.07 26.52 16.07 27.8C16.07 29 16.42 30.11 16.93 31.14C17.53 32.16 18.38 33.02 19.41 33.62C20.43 34.22 21.55 34.47 22.74 34.47C23.94 34.47 25.05 34.13 26.08 33.62C27.11 33.02 27.96 32.16 28.56 31.14C29.16 30.11 29.41 29 29.41 27.8C29.41 26.6 29.07 25.49 28.56 24.46C28.13 23.35 27.28 22.5 26.25 21.9Z" fill="#2F1C48" fill-opacity="1.000000" fill-rule="nonzero"/>
	<path id="Vector" d="M38.82 8.21L43.44 8.21L43.44 10.43C44.04 9.66 44.81 9.06 45.75 8.64C46.6 8.21 47.63 8.04 48.57 8.04C49.26 8.04 49.94 8.12 50.54 8.29L50.54 13.6C50.54 13.6 49.85 13.34 48.32 13.34C45.66 13.34 43.87 15.14 43.87 17.79L43.87 28.66L38.74 28.66L38.74 8.21L38.82 8.21ZM63.88 8.21L68.5 8.21L68.5 10.18C70.12 8.81 72.18 7.95 74.23 7.95C79.36 7.95 83.81 12.4 83.81 18.39C83.81 24.38 79.36 28.83 74.23 28.83C72.26 28.83 70.38 28.14 68.93 26.86L68.93 35.93L63.79 35.93L63.79 8.21L63.88 8.21ZM78.68 18.39C78.68 15.05 76.45 12.83 73.63 12.83C70.72 12.83 68.5 15.05 68.5 18.39C68.5 21.73 70.72 23.95 73.63 23.95C76.54 23.95 78.68 21.73 78.68 18.39ZM87.57 8.21L92.19 8.21L92.19 10.18C93.81 8.81 95.87 7.95 97.92 7.95C103.05 7.95 107.5 12.4 107.5 18.39C107.5 24.38 103.05 28.83 97.92 28.83C95.95 28.83 94.07 28.14 92.62 26.86L92.62 35.93L87.48 35.93L87.48 8.21L87.57 8.21ZM102.37 18.39C102.37 15.05 100.14 12.83 97.32 12.83C94.41 12.83 92.19 15.05 92.19 18.39C92.19 21.73 94.41 23.95 97.32 23.95C100.23 23.95 102.37 21.73 102.37 18.39ZM111.26 0.68L116.39 0.68L116.39 28.57L111.26 28.57L111.26 0.68ZM120.15 18.39C120.15 12.66 124.77 7.95 130.33 7.95C135.63 7.95 140.08 12.14 140.08 18.39C140.08 19.07 140 19.76 139.82 20.36L125.63 20.36C126.06 22.33 127.68 23.87 130.25 23.87C132.64 23.87 133.58 22.75 133.58 22.75L139.14 22.75C138.11 25.41 134.95 28.74 130.25 28.74C124.77 28.83 120.15 24.21 120.15 18.39ZM135.21 16.85C134.95 15.74 134.35 14.71 133.5 14.03C132.64 13.34 131.53 12.91 130.33 12.91C129.22 12.91 128.11 13.34 127.17 14.03C126.31 14.71 125.63 15.74 125.46 16.85L135.21 16.85ZM53.53 2.9C53.53 2.13 53.87 1.36 54.39 0.85C54.9 0.34 55.67 0 56.44 0C57.21 0 57.98 0.34 58.49 0.85C59.01 1.36 59.35 2.13 59.35 2.9C59.35 3.67 59.01 4.44 58.49 4.96C57.98 5.47 57.21 5.81 56.44 5.81C55.67 5.81 54.9 5.47 54.39 4.96C53.87 4.36 53.53 3.67 53.53 2.9ZM53.87 8.21L59.01 8.21L59.01 28.57L53.87 28.57L53.87 8.21Z" fill="#2F1C48" fill-opacity="1.000000" fill-rule="nonzero"/>
</svg>
