<svg width="147.750000" height="44.363159" viewBox="0 0 147.75 44.3632" fill="none" xmlns="http://www.w3.org/2000/svg" xmlns:xlink="http://www.w3.org/1999/xlink">
	<desc>
			Created with Pixso.
	</desc>
	<defs/>
	<path id="path14" d="M35.26 19.66C28.12 15.41 16.34 15.02 9.52 17.09C8.42 17.43 7.27 16.81 6.93 15.71C6.6 14.62 7.22 13.46 8.31 13.12C16.14 10.75 29.15 11.2 37.37 16.09C38.36 16.68 38.68 17.95 38.1 18.93C37.51 19.92 36.24 20.24 35.26 19.66ZM35.02 25.95C34.52 26.76 33.46 27.02 32.65 26.52C26.69 22.85 17.61 21.79 10.57 23.93C9.66 24.21 8.69 23.69 8.41 22.78C8.14 21.87 8.65 20.9 9.57 20.62C17.61 18.18 27.62 19.36 34.46 23.57C35.27 24.07 35.52 25.14 35.02 25.95ZM32.31 31.99C31.92 32.64 31.07 32.85 30.41 32.45C25.21 29.27 18.66 28.55 10.95 30.31C10.21 30.48 9.47 30.01 9.3 29.27C9.13 28.53 9.59 27.78 10.34 27.62C18.78 25.68 26.02 26.51 31.86 30.09C32.51 30.49 32.71 31.34 32.31 31.99ZM22.15 0C9.92 0 0 9.93 0 22.18C0 34.43 9.92 44.36 22.15 44.36C34.39 44.36 44.31 34.43 44.31 22.18C44.31 9.93 34.39 0 22.15 0Z" fill="#2F1C48" fill-opacity="1.000000" fill-rule="nonzero"/>
	<path id="path16" d="M60.28 20.47C56.45 19.56 55.77 18.92 55.77 17.57C55.77 16.3 56.97 15.44 58.75 15.44C60.47 15.44 62.18 16.09 63.98 17.43C64.03 17.47 64.1 17.49 64.16 17.48C64.23 17.47 64.29 17.43 64.33 17.38L66.2 14.74C66.27 14.63 66.25 14.48 66.15 14.4C64.02 12.68 61.61 11.85 58.8 11.85C54.67 11.85 51.79 14.33 51.79 17.88C51.79 21.69 54.28 23.04 58.58 24.08C62.24 24.92 62.86 25.63 62.86 26.89C62.86 28.3 61.61 29.17 59.6 29.17C57.36 29.17 55.54 28.41 53.5 26.65C53.45 26.6 53.38 26.58 53.32 26.59C53.25 26.59 53.19 26.62 53.15 26.68L51.05 29.17C50.97 29.27 50.98 29.43 51.08 29.52C53.45 31.64 56.36 32.76 59.51 32.76C63.96 32.76 66.84 30.32 66.84 26.55C66.84 23.37 64.94 21.61 60.28 20.47Z" fill="#2F1C48" fill-opacity="1.000000" fill-rule="nonzero"/>
	<path id="path18" d="M80.14 24.74C80.14 27.43 78.49 29.31 76.12 29.31C73.77 29.31 72.01 27.34 72.01 24.74C72.01 22.14 73.77 20.17 76.12 20.17C78.45 20.17 80.14 22.09 80.14 24.74ZM76.91 16.7C74.98 16.7 73.4 17.46 72.09 19.01L72.09 17.26C72.09 17.12 71.98 17.01 71.84 17.01L68.42 17.01C68.28 17.01 68.17 17.12 68.17 17.26L68.17 36.76C68.17 36.89 68.28 37.01 68.42 37.01L71.84 37.01C71.98 37.01 72.09 36.89 72.09 36.76L72.09 30.6C73.4 32.07 74.98 32.78 76.91 32.78C80.49 32.78 84.12 30.02 84.12 24.74C84.12 19.46 80.49 16.7 76.91 16.7Z" fill="#2F1C48" fill-opacity="1.000000" fill-rule="nonzero"/>
	<path id="path20" d="M93.42 29.33C90.97 29.33 89.12 27.36 89.12 24.74C89.12 22.11 90.91 20.2 93.37 20.2C95.84 20.2 97.7 22.18 97.7 24.8C97.7 27.43 95.9 29.33 93.42 29.33ZM93.42 16.7C88.81 16.7 85.19 20.25 85.19 24.8C85.19 29.29 88.78 32.81 93.37 32.81C98 32.81 101.63 29.27 101.63 24.74C101.63 20.23 98.03 16.7 93.42 16.7Z" fill="#2F1C48" fill-opacity="1.000000" fill-rule="nonzero"/>
	<path id="path22" d="M111.49 17.01L107.72 17.01L107.72 13.15C107.72 13.01 107.61 12.9 107.47 12.9L104.04 12.9C103.91 12.9 103.79 13.01 103.79 13.15L103.79 17.01L102.15 17.01C102.01 17.01 101.9 17.12 101.9 17.26L101.9 20.21C101.9 20.35 102.01 20.46 102.15 20.46L103.79 20.46L103.79 28.08C103.79 31.17 105.33 32.73 108.35 32.73C109.58 32.73 110.6 32.48 111.56 31.93C111.63 31.89 111.68 31.8 111.68 31.71L111.68 28.91C111.68 28.82 111.64 28.74 111.56 28.69C111.49 28.65 111.4 28.64 111.32 28.68C110.66 29.01 110.02 29.17 109.31 29.17C108.21 29.17 107.72 28.67 107.72 27.55L107.72 20.46L111.49 20.46C111.63 20.46 111.74 20.35 111.74 20.21L111.74 17.26C111.74 17.12 111.63 17.01 111.49 17.01Z" fill="#2F1C48" fill-opacity="1.000000" fill-rule="nonzero"/>
	<path id="path24" d="M124.62 17.02L124.62 16.55C124.62 15.16 125.16 14.53 126.35 14.53C127.07 14.53 127.64 14.68 128.28 14.89C128.36 14.92 128.45 14.9 128.51 14.86C128.58 14.81 128.61 14.73 128.61 14.65L128.61 11.76C128.61 11.65 128.54 11.55 128.44 11.52C127.76 11.32 126.89 11.11 125.59 11.11C122.42 11.11 120.75 12.9 120.75 16.27L120.75 16.99L119.11 16.99C118.97 16.99 118.86 17.11 118.86 17.25L118.86 20.21C118.86 20.35 118.97 20.46 119.11 20.46L120.75 20.46L120.75 32.22C120.75 32.36 120.86 32.47 121 32.47L124.43 32.47C124.57 32.47 124.68 32.36 124.68 32.22L124.68 20.46L127.88 20.46L132.78 32.22C132.22 33.45 131.67 33.7 130.93 33.7C130.32 33.7 129.69 33.52 129.04 33.16C128.98 33.13 128.9 33.12 128.84 33.14C128.77 33.17 128.72 33.22 128.69 33.28L127.53 35.83C127.47 35.95 127.52 36.09 127.64 36.15C128.85 36.81 129.94 37.09 131.29 37.09C133.82 37.09 135.22 35.91 136.45 32.74L142.4 17.37C142.43 17.29 142.42 17.2 142.37 17.13C142.32 17.06 142.25 17.02 142.17 17.02L138.6 17.02C138.49 17.02 138.4 17.09 138.36 17.19L134.71 27.64L130.71 17.19C130.67 17.09 130.58 17.02 130.47 17.02L124.62 17.02Z" fill="#2F1C48" fill-opacity="1.000000" fill-rule="nonzero"/>
	<path id="path26" d="M117.01 17.01L113.58 17.01C113.44 17.01 113.33 17.12 113.33 17.26L113.33 32.22C113.33 32.36 113.44 32.47 113.58 32.47L117.01 32.47C117.15 32.47 117.26 32.36 117.26 32.22L117.26 17.26C117.26 17.12 117.15 17.01 117.01 17.01Z" fill="#2F1C48" fill-opacity="1.000000" fill-rule="nonzero"/>
	<path id="path28" d="M115.31 10.2C113.96 10.2 112.85 11.3 112.85 12.65C112.85 14.01 113.96 15.12 115.31 15.12C116.67 15.12 117.77 14.01 117.77 12.65C117.77 11.3 116.67 10.2 115.31 10.2Z" fill="#2F1C48" fill-opacity="1.000000" fill-rule="nonzero"/>
	<path id="path30" d="M145.46 18.5L144.83 18.5L144.83 19.3L145.46 19.3C145.78 19.3 145.96 19.14 145.96 18.9C145.96 18.64 145.78 18.5 145.46 18.5ZM145.87 19.64L146.55 20.6L145.98 20.6L145.36 19.72L144.83 19.72L144.83 20.6L144.35 20.6L144.35 18.06L145.48 18.06C146.07 18.06 146.46 18.36 146.46 18.87C146.46 19.29 146.22 19.54 145.87 19.64ZM145.33 17.22C144.1 17.22 143.17 18.2 143.17 19.41C143.17 20.61 144.09 21.58 145.32 21.58C146.56 21.58 147.49 20.6 147.49 19.39C147.49 18.19 146.56 17.22 145.33 17.22ZM145.32 21.82C143.97 21.82 142.91 20.73 142.91 19.41C142.91 18.08 143.98 16.98 145.33 16.98C146.69 16.98 147.75 18.07 147.75 19.39C147.75 20.72 146.68 21.82 145.32 21.82Z" fill="#2F1C48" fill-opacity="1.000000" fill-rule="nonzero"/>
</svg>
