<svg width="149.952637" height="36.500000" viewBox="0 0 149.953 36.5" fill="none" xmlns="http://www.w3.org/2000/svg" xmlns:xlink="http://www.w3.org/1999/xlink">
	<desc>
			Created with Pixso.
	</desc>
	<defs/>
	<path id="Vector" d="M83.34 23.2C83.34 23.49 83.29 23.82 83.24 24.06C82.82 25.3 81.68 26.11 80.35 26.11C79.17 26.11 78.27 25.44 78.27 24.01C78.27 21.82 80.64 21.25 83.39 21.25L83.39 23.2L83.34 23.2ZM87.61 19.39C87.61 15.81 86.09 12.62 80.92 12.62C78.27 12.62 76.13 13.38 75 14.05L75.85 16.96C77.18 16.2 78.65 15.77 80.16 15.72C82.82 15.72 83.24 17.2 83.24 18.15L83.24 18.39C77.51 18.39 73.9 20.39 73.9 24.44C73.9 26.92 75.75 29.25 78.98 29.25C80.92 29.25 82.58 28.49 83.58 27.2L83.67 27.2C83.67 27.2 84.33 29.97 87.94 28.92C87.75 27.78 87.65 26.54 87.65 25.11L87.65 19.39L87.61 19.39ZM0 7.71L4.36 25.63C5.07 28.54 6.3 29.63 9.9 28.92L12.23 19.39C12.8 17.01 13.22 15.34 13.6 12.91L13.65 12.91C13.93 15.34 14.31 17.01 14.79 19.39L16.21 26.01C16.73 28.3 18.06 29.73 21.61 28.92L27.16 7.76L22.66 7.76L20.76 16.91C20.24 19.58 19.76 21.68 19.43 24.11C19.1 21.68 18.67 19.67 18.15 17.1L16.21 7.76L11.52 7.76L9.38 16.86C8.81 19.63 8.24 21.87 7.86 24.2L7.82 24.2C7.44 22.01 6.96 19.2 6.44 16.53L4.74 7.71L0 7.71ZM35.41 23.2C35.41 23.49 35.41 23.82 35.31 24.06C34.89 25.3 33.75 26.11 32.42 26.11C31.24 26.11 30.34 25.44 30.34 24.01C30.34 21.82 32.71 21.25 35.46 21.25L35.46 23.2L35.41 23.2ZM39.72 19.39C39.72 15.81 38.21 12.62 33.04 12.62C30.38 12.62 28.25 13.38 27.11 14.05L27.97 16.96C29.29 16.2 30.76 15.77 32.28 15.72C34.93 15.72 35.36 17.2 35.36 18.15L35.36 18.39C29.63 18.39 26.02 20.39 26.02 24.44C26.02 26.92 27.87 29.25 31.1 29.25C33.04 29.25 34.7 28.49 35.69 27.2L35.79 27.2C35.79 27.2 36.45 29.97 40.06 28.92C39.87 27.78 39.77 26.54 39.77 25.11L39.77 19.39L39.72 19.39ZM46.31 24.39L46.31 7.71L42.05 7.71L42.05 28.87L46.31 28.87L46.31 24.39ZM100.74 7.76L100.74 23.34C100.74 25.49 101.12 27.01 102.02 27.92C102.78 28.73 104.01 29.25 105.48 29.25C106.76 29.25 107.99 29.01 108.56 28.78L108.51 25.39C108.09 25.54 107.56 25.58 106.9 25.58C105.43 25.58 104.96 24.68 104.96 22.72L104.96 16.82L108.7 16.82L108.7 12.77L104.96 12.77L104.96 7.71L100.74 7.76ZM89.69 13L89.69 28.92L94.1 28.92L94.1 20.77C94.1 20.34 94.15 19.96 94.2 19.58C94.53 17.86 95.81 16.77 97.7 16.77C98.23 16.77 98.56 16.82 98.98 16.86L98.98 12.67C98.65 12.62 98.32 12.57 98.04 12.57C96.38 12.57 94.53 13.62 93.72 15.96L93.63 15.96L93.63 12.96L89.69 13ZM48.83 13L48.83 28.92L53.09 28.92L53.09 19.58C53.09 19.15 53.14 18.67 53.28 18.29C53.61 17.34 54.51 16.24 55.89 16.24C57.64 16.24 58.45 17.72 58.45 19.82L58.45 28.87L62.76 28.87L62.76 19.44C62.76 19.01 62.81 18.48 62.95 18.15C63.29 17.01 64.38 16.2 65.56 16.2C67.31 16.2 68.17 17.63 68.17 20.15L68.17 28.87L72.48 28.87L72.48 19.53C72.48 14.62 69.97 12.62 67.17 12.62C65.89 12.62 64.94 12.96 64.04 13.48C63.29 13.96 62.62 14.62 62.05 15.48L62.01 15.48C61.29 13.72 59.54 12.57 57.64 12.62C55.75 12.53 53.95 13.48 53.04 15.15L53 15.15L53 13L48.83 13Z" fill="#2F1C48" fill-opacity="1.000000" fill-rule="evenodd"/>
	<path id="Vector" d="M131.79 12.29C132.64 12.29 133.36 11.81 133.45 11.29L134.26 1.71C134.26 0.76 133.17 0 131.79 0C130.42 0 129.33 0.76 129.33 1.71L130.18 11.29C130.23 11.86 130.94 12.29 131.79 12.29ZM126.62 15.29C127.05 14.53 127 13.72 126.58 13.34L118.75 7.86C117.95 7.38 116.72 7.95 116.05 9.14C115.34 10.34 115.48 11.72 116.29 12.15L124.96 16.2C125.49 16.39 126.24 16.01 126.62 15.29ZM136.91 15.24C137.34 16.01 138.05 16.39 138.62 16.15L147.25 12.1C148.05 11.62 148.19 10.29 147.48 9.1C146.77 7.9 145.59 7.33 144.78 7.81L136.96 13.34C136.53 13.72 136.48 14.53 136.91 15.24ZM131.79 24.2C132.64 24.2 133.36 24.68 133.45 25.2L134.26 34.78C134.26 35.73 133.17 36.5 131.79 36.5C130.42 36.5 129.33 35.73 129.33 34.78L130.18 25.2C130.23 24.63 130.94 24.2 131.79 24.2ZM136.91 21.25C137.34 20.48 138.05 20.1 138.62 20.29L147.25 24.34C148.05 24.82 148.19 26.15 147.48 27.35C146.77 28.54 145.59 29.11 144.78 28.63L136.96 23.15C136.53 22.82 136.48 21.96 136.91 21.25ZM126.62 21.25C127.05 21.96 127 22.82 126.58 23.2L118.75 28.68C117.95 29.16 116.72 28.59 116.05 27.39C115.34 26.2 115.48 24.87 116.29 24.39L124.96 20.34C125.49 20.1 126.24 20.48 126.62 21.25ZM149.1 27.82L149.19 27.82C149.28 27.82 149.38 27.78 149.38 27.73C149.38 27.63 149.33 27.63 149.24 27.63L149.14 27.63L149.14 27.82L149.1 27.82ZM149.1 28.25L148.91 28.25L148.91 27.49L149.19 27.49C149.33 27.49 149.38 27.49 149.47 27.54C149.52 27.58 149.57 27.63 149.57 27.68C149.57 27.78 149.52 27.82 149.43 27.87C149.52 27.92 149.57 27.97 149.57 28.06C149.57 28.2 149.62 28.2 149.62 28.25L149.43 28.25C149.38 28.2 149.38 28.16 149.38 28.06C149.38 27.97 149.33 27.97 149.24 27.97L149.14 27.97L149.1 28.25ZM149.19 27.25C148.86 27.25 148.62 27.54 148.62 27.87C148.62 28.2 148.86 28.49 149.19 28.49C149.52 28.49 149.76 28.2 149.76 27.87C149.81 27.54 149.52 27.25 149.19 27.25ZM149.19 27.11C149.62 27.11 149.95 27.44 149.95 27.87C149.95 28.3 149.62 28.63 149.19 28.63C148.76 28.63 148.38 28.3 148.38 27.87C148.43 27.44 148.76 27.11 149.19 27.11Z" fill="#2F1C48" fill-opacity="1.000000" fill-rule="evenodd"/>
</svg>
